<svg width="18" height="18" viewBox="0 0 18 18" fill="none" xmlns="http://www.w3.org/2000/svg">
<path d="M16.6377 8.87724L9.84554 2.08857L9.39027 1.6333C9.28654 1.53025 9.14625 1.47241 9.00004 1.47241C8.85382 1.47241 8.71354 1.53025 8.6098 1.6333L1.36234 8.87724C1.25605 8.98312 1.17204 9.10922 1.11528 9.2481C1.05853 9.38698 1.03016 9.53582 1.03187 9.68584C1.0389 10.3046 1.55394 10.7985 2.17269 10.7985H2.91976V16.5237H15.0803V10.7985H15.8432C16.1438 10.7985 16.4268 10.6808 16.6395 10.4681C16.7442 10.3637 16.8272 10.2395 16.8836 10.1028C16.94 9.96616 16.9688 9.81964 16.9682 9.67177C16.9682 9.37294 16.8504 9.08994 16.6377 8.87724V8.87724ZM9.98441 15.2581H8.01566V11.6722H9.98441V15.2581ZM13.8147 9.53291V15.2581H11.1094V11.2503C11.1094 10.8618 10.7948 10.5472 10.4063 10.5472H7.59379C7.20531 10.5472 6.89066 10.8618 6.89066 11.2503V15.2581H4.18539V9.53291H2.49789L9.00179 3.03427L9.40785 3.44033L15.5039 9.53291H13.8147Z" fill="#8C8C8C"/>
</svg>
