<svg width="16" height="16" viewBox="0 0 16 16" fill="none" xmlns="http://www.w3.org/2000/svg">
<path d="M13.4143 11.9312C13.1196 11.2331 12.6919 10.5989 12.155 10.0641C11.6197 9.52767 10.9856 9.10001 10.2878 8.80469C10.2815 8.80156 10.2753 8.8 10.269 8.79688C11.2425 8.09375 11.8753 6.94844 11.8753 5.65625C11.8753 3.51562 10.1409 1.78125 8.00028 1.78125C5.85966 1.78125 4.12528 3.51562 4.12528 5.65625C4.12528 6.94844 4.7581 8.09375 5.73153 8.79844C5.72528 8.80156 5.71903 8.80312 5.71278 8.80625C5.01278 9.10156 4.38466 9.525 3.8456 10.0656C3.3092 10.6009 2.88154 11.235 2.58622 11.9328C2.2961 12.616 2.13963 13.3485 2.12528 14.0906C2.12487 14.1073 2.12779 14.1239 2.13389 14.1394C2.13998 14.1549 2.14912 14.1691 2.16077 14.181C2.17242 14.193 2.18634 14.2025 2.20171 14.2089C2.21709 14.2154 2.2336 14.2188 2.25028 14.2188H3.18778C3.25653 14.2188 3.31122 14.1641 3.31278 14.0969C3.34403 12.8906 3.82841 11.7609 4.68466 10.9047C5.5706 10.0188 6.74716 9.53125 8.00028 9.53125C9.25341 9.53125 10.43 10.0188 11.3159 10.9047C12.1722 11.7609 12.6565 12.8906 12.6878 14.0969C12.6893 14.1656 12.744 14.2188 12.8128 14.2188H13.7503C13.767 14.2188 13.7835 14.2154 13.7989 14.2089C13.8142 14.2025 13.8281 14.193 13.8398 14.181C13.8514 14.1691 13.8606 14.1549 13.8667 14.1394C13.8728 14.1239 13.8757 14.1073 13.8753 14.0906C13.8597 13.3437 13.705 12.6172 13.4143 11.9312V11.9312ZM8.00028 8.34375C7.2831 8.34375 6.6081 8.06406 6.10028 7.55625C5.59247 7.04844 5.31278 6.37344 5.31278 5.65625C5.31278 4.93906 5.59247 4.26406 6.10028 3.75625C6.6081 3.24844 7.2831 2.96875 8.00028 2.96875C8.71747 2.96875 9.39247 3.24844 9.90028 3.75625C10.4081 4.26406 10.6878 4.93906 10.6878 5.65625C10.6878 6.37344 10.4081 7.04844 9.90028 7.55625C9.39247 8.06406 8.71747 8.34375 8.00028 8.34375Z" fill="white"/>
</svg>
